<?xml version="1.0" standalone="no"?>
<!DOCTYPE svg PUBLIC "-//W3C//DTD SVG 20010904//EN"
 "http://www.w3.org/TR/2001/REC-SVG-20010904/DTD/svg10.dtd">
<svg version="1.0" xmlns="http://www.w3.org/2000/svg"
 width="512.000000pt" height="512.000000pt" viewBox="0 0 512.000000 512.000000"
 preserveAspectRatio="xMidYMid meet">
<metadata>
Created by potrace 1.14, written by Peter Selinger 2001-2017
</metadata>
<g transform="translate(0.000000,512.000000) scale(0.100000,-0.100000)"
fill="#000000" stroke="none">
<path d="M1095 3836 c-71 -31 -118 -111 -111 -188 16 -163 224 -227 332 -101
61 71 51 185 -23 261 -38 39 -140 53 -198 28z"/>
<path d="M1694 3839 c-40 -11 -95 -68 -110 -112 -30 -88 11 -192 91 -228 34
-16 68 -19 219 -19 200 0 240 -8 286 -55 87 -90 64 -235 -46 -291 -38 -19 -59
-20 -307 -21 -242 -1 -269 -3 -310 -21 -55 -25 -94 -79 -103 -145 -9 -67 29
-144 88 -177 38 -22 57 -25 171 -27 142 -2 179 -10 221 -49 91 -85 77 -223
-28 -289 l-48 -29 -241 -1 c-212 -1 -247 -4 -280 -20 -134 -64 -134 -266 0
-330 34 -17 70 -19 348 -20 298 -1 312 -2 355 -23 83 -41 120 -137 86 -227
-29 -74 -86 -110 -190 -119 -183 -16 -232 -268 -68 -348 43 -20 50 -21 830
-19 433 1 802 4 820 6 80 10 117 17 189 36 473 121 852 527 939 1008 36 200
25 410 -32 611 -67 233 -238 486 -434 641 -151 119 -344 211 -520 248 -30 6
-68 14 -85 18 -46 11 -1805 13 -1841 2z"/>
<path d="M665 3109 c-150 -20 -213 -195 -111 -307 47 -52 66 -56 286 -58 218
-2 249 3 298 49 75 70 76 191 3 268 -41 43 -75 50 -259 52 -97 1 -195 0 -217
-4z"/>
<path d="M1064 1625 c-105 -47 -145 -172 -85 -268 49 -76 86 -89 254 -88 157
0 189 10 239 72 34 42 47 118 28 173 -14 45 -59 92 -102 111 -46 19 -292 19
-334 0z"/>
</g>
</svg>
