<?xml version="1.0" encoding="UTF-8"?>
<svg id="vb-stats-logo" data-name="vb-stats" xmlns="http://www.w3.org/2000/svg" viewBox="0 0 256 256">
  <circle cx="166" cy="128" r="62" fill="#246eb7" stroke-width="0"/>
  <g>
    <path d="m225.7,101.59c-1.86-4.12-4.13-8.01-6.78-11.62-5.39-7.36-12.31-13.54-20.29-18.06-8.39-4.76-17.95-7.69-28.13-8.26-1.13-.06-2.27-.09-3.41-.1h-79.22c-5.09,0-9.21,4.13-9.21,9.22s4.12,9.21,9.21,9.21h14.79c5.09,0,9.21,4.12,9.21,9.21s-4.12,9.22-9.21,9.22h-22.81c-5.09,0-9.22,4.12-9.22,9.21s4.13,9.21,9.22,9.21h8.81c5.09,0,9.21,4.13,9.21,9.21s-4.13,9.21-9.21,9.21h-19.65c-5.09,0-9.21,4.13-9.21,9.22s4.12,9.21,9.21,9.21h26.9c5.09,0,9.21,4.12,9.21,9.21s-4.13,9.21-9.21,9.21h-.38c-5.08,0-9.2,4.13-9.2,9.21s4.12,9.21,9.2,9.21h0s71.31,0,71.31,0c23.24,0,43.61-12.29,54.96-30.73,6.05-9.83,9.54-21.39,9.54-33.78,0-9.43-2.03-18.39-5.66-26.46Zm-58.84,82.93c-31.13,0-56.46-25.33-56.46-56.46s25.33-56.46,56.46-56.46,56.46,25.33,56.46,56.46-25.33,56.46-56.46,56.46Z" fill="#fff" stroke-width="0"/>
    <path d="m50.58,100.41h-16.16c-5.09,0-9.21,4.13-9.21,9.21s4.12,9.21,9.21,9.21h16.16c5.09,0,9.21-4.13,9.21-9.21s-4.12-9.21-9.21-9.21Z" fill="#fff" stroke-width="0"/>
    <path d="m58.63,63.55h-.25c-5.09,0-9.21,4.13-9.21,9.21s4.12,9.21,9.21,9.21h.25c5.09,0,9.21-4.13,9.21-9.21s-4.12-9.21-9.21-9.21Z" fill="#fff" stroke-width="0"/>
    <path d="m66.31,174.12h-9.52c-5.09,0-9.21,4.12-9.21,9.21s4.12,9.21,9.21,9.21h9.52c5.09,0,9.22-4.12,9.22-9.21s-4.13-9.21-9.22-9.21Z" fill="#fff" stroke-width="0"/>
    <path d="m139.6,166.34c6.57-1.77,12.84-4.58,18.55-8.28,6.23-4.03,11.8-9.1,16.39-14.94,2.67-3.39,5.09-7.05,6.93-10.96-2.69-.84-5.55-1.22-8.34-1.62-1.2-.17-2.4-.33-3.61-.47-.33-.04-.66-.08-.99-.11-.07,0-.13-.01-.2-.02-.12,0-.24,0-.36-.01-.05.08-.09.15-.14.23-.11.18-.22.36-.34.55-1.94,3.11-4.19,6.05-6.76,8.66-2.4,2.45-5.1,4.56-7.96,6.45-2.53,1.67-5.09,3.31-7.85,4.58,0,.01.02.02.02.04-2.04.83-4.09,1.66-6.2,2.33-2.71.86-5.53,1.34-8.32,1.82-1.38.24-2.74.39-4.14.48,1.92,2.89,4.15,5.57,6.64,7.98,1.34,1.3,2.76,2.53,4.24,3.67.23.18.25.16.51.1.23-.06.45-.11.68-.17.41-.1.83-.2,1.24-.31.38-.1-.23.06,0,0Z" fill="#fff" stroke-width="0"/>
    <path d="m194.24,142.2c.53-.92.92-1.93,1.4-2.87-1.35-.99-2.76-1.89-4.19-2.75-1.17-.7-2.39-1.32-3.62-1.91-.42-.2-.84-.4-1.27-.59-.32-.14-.65-.28-.98-.42-.14-.06-.27-.11-.41-.17-.05.1-.1.21-.15.31-2.78,5.52-6.3,10.69-10.43,15.3-5.03,5.61-10.97,10.41-17.52,14.15-4.64,2.65-9.59,4.74-14.71,6.3-.25.08-.5.15-.75.23,3.84,2.32,8,4.11,12.32,5.3,1.1.3,2.21.56,3.32.78.46.09,1.13.35,1.56.15.45-.23.91-.45,1.35-.69,1.73-.9,3.42-1.85,5.08-2.87,6.62-4.06,12.65-9.06,17.89-14.8,4.28-4.69,8.02-9.88,11.1-15.44,0-.01-.58,1.05,0,0Z" fill="#fff" stroke-width="0"/>
    <path d="m208.52,153.38c-3.74,6.15-8.85,11.44-14.87,15.4-6,3.95-12.86,6.55-19.97,7.55-2.72.38-5.43.45-8.18.45,7.22-4.2,13.83-9.41,19.55-15.5,2.8-2.98,5.39-6.17,7.73-9.52,1.29-1.84,2.44-3.76,3.59-5.68.83-1.38,1.73-2.75,2.43-4.2,3.8,3.31,7.1,7.19,9.71,11.51-7.98,13.11-.67-1.11,0,0Z" fill="#fff" stroke-width="0"/>
    <path d="m165.91,83.19c-1.44,3.31-2.51,6.8-3.18,10.35,8.99-.45,18.05.52,26.73,2.9,7.13,1.95,14.01,4.84,20.4,8.56-3.82-7.09-9.4-13.25-16.12-17.7-7.13-4.71-15.46-7.48-23.99-7.98-.37-.02-.73-.04-1.1-.05-.15,0-.76-.1-.83.02-.22.41-.44.83-.66,1.25-.44.87-.86,1.76-1.25,2.65-.03.06.16-.38,0,0Z" fill="#fff" stroke-width="0"/>
    <path d="m213.7,114.35c-.2-.67-.41-1.33-.63-1.99-.07-.21-.14-.42-.2-.63-.04-.13-.08-.26-.12-.39-.24-.16-.49-.33-.73-.49-1-.66-2.03-1.29-3.06-1.91-3.2-1.96-6.58-3.64-10.04-5.11-7.89-3.34-16.31-5.46-24.85-6.23-2.13-.19-4.27-.3-6.41-.32-1.14-.01-2.27,0-3.41.04-.55.02-1.11.04-1.67.07-.14,0-.28.01-.41.02-.01.13-.03.26-.04.39-.03.31-.06.61-.08.92-.18,2.25-.19,4.52-.05,6.78.07,1.13.18,2.26.34,3.38.02.14.04.28.06.42.03.21.11.13.29.12.27-.02.55-.03.82-.05.59-.03,1.19-.05,1.78-.07,8.85-.22,17.73,1.32,26.02,4.42,8.22,3.07,15.9,7.7,22.42,13.58.64.58,1.28,1.18,1.9,1.78.12-4.97-.54-9.96-1.94-14.74-.22-.75.43,1.48,0,0Z" fill="#fff" stroke-width="0"/>
    <path d="m214.96,133.89c-5.51-5.88-12.18-10.66-19.43-14.15-6.97-3.35-14.5-5.5-22.19-6.27-3.38-.34-6.78-.41-10.17-.22.82,3.99,2.3,7.86,4.12,11.5.12.25.25.49.37.73.04.07.26.6.32.61.09,0,.18.01.27.02.49.03.97.06,1.46.1,1.25.09,2.5.17,3.75.3,6.5.7,12.84,2.9,18.57,6,2.28,1.24,4.4,2.73,6.52,4.22,2.62,1.84,4.97,4.13,7.12,6.49,1.81,1.98,3.49,4.09,4.96,6.33,1.25-2.53,2.29-5.18,3.09-7.9.38-1.29.71-2.6.97-3.92.13-.65.25-1.3.35-1.95.05-.35.1-.69.15-1.04.02-.17.04-.34.06-.52-.1-.11-.2-.21-.3-.32-.2-.22.1.11,0,0Z" fill="#fff" stroke-width="0"/>
    <path d="m145.19,103.01c.08,8.01,1.63,16.01,4.53,23.48,1.64,4.23,3.72,8.29,6.21,12.08,3.19-2.9,5.98-6.23,8.29-9.87.14-.23.28-.45.42-.68-.1-.21-.22-.4-.33-.6-.27-.5-.53-1.01-.79-1.52-.5-1.01-.97-2.05-1.41-3.09-.89-2.13-1.68-4.32-2.22-6.56-.33-1.37-.64-2.74-.93-4.11-.15-.69-.21-1.41-.3-2.1-.36-2.63-.64-5.23-.6-7.89.02-1.87.23-3.75.36-5.61.09-1.32.32-2.62.57-3.92.43-2.2.99-4.38,1.69-6.51.76-2.31,1.68-4.57,2.76-6.75-4.59.32-9.12,1.29-13.44,2.88-.51.19-1.02.39-1.52.59-.12.05-.25.1-.38.16-.04.13-.08.26-.12.39-.09.29-.18.58-.26.87-.32,1.1-.61,2.21-.87,3.33-.52,2.24-.92,4.52-1.2,6.8-.35,2.87-.52,5.76-.48,8.65,0,.44,0-.08,0,0Z" fill="#fff" stroke-width="0"/>
    <path d="m129.39,103.62c.1,7.29,1.17,14.57,3.21,21.57,1.19,4.12,2.71,8.13,4.54,12.01.92,1.94,1.91,3.85,2.98,5.72.52.9,1.06,1.8,1.61,2.68.29.47.59.93.89,1.39.04.06.08.12.12.18.13-.06.26-.11.39-.17.3-.13.6-.27.9-.41,2.02-.96,3.97-2.07,5.84-3.3.92-.61,1.82-1.24,2.69-1.91.1-.08.21-.16.31-.24.17-.13.05-.16-.05-.31-.15-.23-.31-.47-.46-.7-.33-.51-.65-1.02-.97-1.54-2.32-3.8-4.24-7.82-5.77-12-3.12-8.54-4.58-17.64-4.25-26.73.18-4.95.88-9.87,2.12-14.66-3.7,2.03-7.14,4.54-10.21,7.44-.78.74-1.53,1.5-2.25,2.29-.38.41-.74.82-1.11,1.24-.13.15-.29.27-.31.48-.01.2-.03.4-.04.6-.12,1.68-.17,3.37-.18,5.06,0,.44,0,.88,0,1.32,0,.73,0-.14,0,0Z" fill="#fff" stroke-width="0"/>
    <path d="m124.01,151.3c1.21.08,2.47-.09,3.67-.2,1.28-.12,2.56-.29,3.83-.51,2.57-.45,5.1-1.11,7.56-1.97-3.66-5.68-6.65-11.8-8.86-18.18-2.88-8.32-4.43-17.07-4.65-25.86-.02-.83-.03-1.66-.02-2.49-4.57,7.28-7.15,15.73-7.44,24.32-.15,4.36.3,8.74,1.31,12.99.9,3.73,2.26,7.28,3.97,10.7.2.4.4.81.62,1.21.04,0-.12-.22,0,0Z" fill="#fff" stroke-width="0"/>
  </g>
</svg>